<?xml version="1.0" encoding="UTF-8" standalone="no" ?>
<!DOCTYPE svg PUBLIC "-//W3C//DTD SVG 1.1//EN" "http://www.w3.org/Graphics/SVG/1.1/DTD/svg11.dtd">
<svg xmlns="http://www.w3.org/2000/svg" xmlns:xlink="http://www.w3.org/1999/xlink" version="1.1" width="1080" height="1080" viewBox="0 0 1080 1080" xml:space="preserve">
<desc>Created with Fabric.js 4.2.0</desc>
<defs>
</defs>
<g transform="matrix(1 0 0 1 540 540)" id="39876b75-b721-4686-baa4-d365ae1b348f"  >
<rect style="stroke: none; stroke-width: 1; stroke-dasharray: none; stroke-linecap: butt; stroke-dashoffset: 0; stroke-linejoin: miter; stroke-miterlimit: 4; fill: rgb(255,255,255); fill-rule: nonzero; opacity: 1;" vector-effect="non-scaling-stroke"  x="-540" y="-540" rx="0" ry="0" width="1080" height="1080" />
</g>
<g transform="matrix(1 0 0 1 540 540)" id="7d916431-fff9-40c5-94ef-7d988e5b906c"  >
</g>
<g transform="matrix(3.87 0 0 3.87 686.6 893.86)" id="06aaaa5d-0b68-4bef-874c-1ea5a9e1ca37"  >
<path style="stroke: rgb(0,0,0); stroke-width: 0; stroke-dasharray: none; stroke-linecap: butt; stroke-dashoffset: 0; stroke-linejoin: miter; stroke-miterlimit: 4; fill: rgb(101,101,101); fill-rule: nonzero; opacity: 1;" vector-effect="non-scaling-stroke"  transform=" translate(-50, -50)" d="M 75.273 39.302 C 77.09599999999999 38.496 81.551 36.296 83.91 33.185 C 86.916 29.268 86.701 27.926000000000002 86.701 27.926000000000002 L 76.34599999999999 29.804000000000002 L 73.61099999999999 27.497000000000003 L 74.36099999999999 25.297000000000004 L 84.23599999999999 23.258000000000003 C 84.23599999999999 23.258000000000003 80.21 19.930000000000003 75.59599999999999 19.072000000000003 C 71.24799999999999 18.213 65.66899999999998 19.179000000000002 63.52099999999999 23.847 L 63.52099999999999 23.794 C 63.52099999999999 23.794 62.448999999999984 26.047 62.289999999999985 27.55 C 62.127999999999986 29 61.37699999999999 32.166 59.978999999999985 34.688 C 58.79999999999998 36.78 57.512999999999984 39.195 54.292999999999985 42.359 L 53.43499999999999 41.501000000000005 L 53.057999999999986 41.82300000000001 L 42.111 30.503 C 39.214999999999996 21.112000000000002 53.327999999999996 23.688 59.39 24.44 C 44.688 10.328000000000001 28.858 17.035 21.024 33.293 C 19.092000000000002 35.653999999999996 14.907 33.775 12.546000000000001 38.66 C 13.886000000000001 42.416 19.681 46.117 22.955000000000002 47.297999999999995 C 27.087000000000003 44.882 26.175 40.483 27.194000000000003 37.318 C 30.307000000000002 34.741 32.775000000000006 35.601 35.725 37.693 L 47.423 47.190999999999995 L 47.101 47.513 L 47.637 48.103 C 39.052 55.187 22.955000000000002 68.226 21.077 69.727 C 18.770000000000003 71.60600000000001 14.745000000000001 75.14800000000001 19.145000000000003 79.654 C 23.598000000000003 84.161 27.783 81.372 29.125000000000004 80.03 C 30.092000000000002 79.119 44.955000000000005 64.792 54.397000000000006 55.775999999999996 L 78.543 83.25 L 87.44900000000001 74.664 L 61.376 49.229 C 61.698 48.907 61.964 48.638 62.071 48.586 C 63.361 47.512 65.454 45.044 70.925 43.434 L 76.937 44.186 L 77.044 43.702 L 75.273 39.302 z" stroke-linecap="round" />
</g>
<g transform="matrix(5.45 0 0 5.45 230.03 857.1)"  >
<g style="" vector-effect="non-scaling-stroke"   >
		<g transform="matrix(1 0 0 1 7.57 0)"  >
<polygon style="stroke: none; stroke-width: 1; stroke-dasharray: none; stroke-linecap: butt; stroke-dashoffset: 0; stroke-linejoin: miter; stroke-miterlimit: 4; fill: rgb(101,101,101); fill-rule: nonzero; opacity: 1;" vector-effect="non-scaling-stroke"  points="-22.23,-19.57 -22.23,-26.94 22.23,-26.94 22.23,26.94 -21.48,26.94 -21.48,21.07 -28.85,21.07 -28.85,30.62 -28.85,33.62 -25.16,33.62 25.91,33.62 29.6,33.62 29.6,30.62 29.6,-29.94 29.6,-33.62 25.91,-33.62 -25.91,-33.62 -29.6,-33.62 -29.6,-29.94 -29.6,-19.57 " />
</g>
		<g transform="matrix(1 0 0 1 -8.29 0)"  >
<polygon style="stroke: none; stroke-width: 1; stroke-dasharray: none; stroke-linecap: butt; stroke-dashoffset: 0; stroke-linejoin: miter; stroke-miterlimit: 4; fill: rgb(101,101,101); fill-rule: nonzero; opacity: 1;" vector-effect="non-scaling-stroke"  points="28.88,0 15.86,12 2.9,24 2.9,9.27 -28.88,9.27 -28.88,-10.1 2.9,-10.1 2.9,-24.01 15.86,-12 " />
</g>
</g>
</g>
<g transform="matrix(7.71 0 0 7.71 705.12 347.41)" id="4f82212c-c573-4a08-84ff-d0cded28d9c5"  >
<path style="stroke: rgb(0,0,0); stroke-width: 0; stroke-dasharray: none; stroke-linecap: butt; stroke-dashoffset: 0; stroke-linejoin: miter; stroke-miterlimit: 4; fill: rgb(101,101,101); fill-rule: nonzero; opacity: 1;" vector-effect="non-scaling-stroke"  transform=" translate(-50, -50)" d="M 14.148 44.105 L 18.091 40.162 C 20.01 38.242 23.176000000000002 38.242 25.096 40.162 L 42.164 57.230999999999995 L 74.904 24.440999999999995 C 76.823 22.521999999999995 79.98899999999999 22.521999999999995 81.90899999999999 24.440999999999995 L 85.851 28.383999999999997 C 87.771 30.302999999999997 87.771 33.415 85.851 35.334999999999994 L 45.641 75.54499999999999 L 45.537 75.64899999999999 L 45.433 75.75299999999999 L 45.329 75.80499999999999 L 45.277 75.90899999999999 L 45.173 75.961 L 45.069 76.065 L 44.965 76.117 L 44.861000000000004 76.16900000000001 L 44.757000000000005 76.27400000000002 L 44.653000000000006 76.32400000000001 L 44.54900000000001 76.37800000000001 L 44.44500000000001 76.43000000000002 L 44.34100000000001 76.48200000000003 L 44.23700000000001 76.53400000000003 L 44.08000000000001 76.58600000000004 L 43.97600000000001 76.63800000000005 L 43.872000000000014 76.69000000000005 L 43.768000000000015 76.74200000000006 L 43.664000000000016 76.74200000000006 L 43.56000000000002 76.79400000000007 L 43.405000000000015 76.84700000000007 L 43.301000000000016 76.84700000000007 L 43.19700000000002 76.89900000000007 L 42.93800000000002 76.89900000000007 L 42.83400000000002 76.95100000000008 L 42.62600000000002 76.95100000000008 L 42.47100000000002 77.00300000000009 L 41.795000000000016 77.00300000000009 L 41.640000000000015 76.95100000000008 L 41.432000000000016 76.95100000000008 L 41.32800000000002 76.89900000000007 L 41.06900000000002 76.89900000000007 L 40.96500000000002 76.84700000000007 L 40.86100000000002 76.84700000000007 L 40.70600000000002 76.79400000000007 L 40.60200000000002 76.74200000000006 L 40.49800000000002 76.74200000000006 L 40.39400000000002 76.69000000000005 L 40.29000000000002 76.63800000000005 L 40.185000000000024 76.58600000000004 L 40.081000000000024 76.53400000000003 L 40.029000000000025 76.53400000000003 C 39.563000000000024 76.32500000000003 39.096000000000025 75.96200000000003 38.630000000000024 75.54800000000003 L 14.140000000000025 51.059000000000026 C 12.229 49.137 12.229 46.025 14.148 44.105 z" stroke-linecap="round" />
</g>
<g transform="matrix(1 0 0 1 288.44 631.63)" style="" id="31a7958d-5358-4b2b-9b5e-fa616beed58c"  >
		<text xml:space="preserve" font-family="Lato" font-size="40" font-style="normal" font-weight="400" style="stroke: none; stroke-width: 1; stroke-dasharray: none; stroke-linecap: butt; stroke-dashoffset: 0; stroke-linejoin: miter; stroke-miterlimit: 4; fill: rgb(0,0,0); fill-rule: nonzero; opacity: 1; white-space: pre;" ><tspan x="-90.18" y="12.57" >Download</tspan></text>
</g>
<g transform="matrix(1 0 0 1 699.49 730.52)" style="" id="2de65147-f9ef-4f16-8d7a-bf9e4d1152fd"  >
		<text xml:space="preserve" font-family="Lato" font-size="40" font-style="normal" font-weight="400" style="stroke: none; stroke-width: 1; stroke-dasharray: none; stroke-linecap: butt; stroke-dashoffset: 0; stroke-linejoin: miter; stroke-miterlimit: 4; fill: rgb(0,0,0); fill-rule: nonzero; opacity: 1; white-space: pre;" ><tspan x="-53.78" y="12.57" >Install</tspan></text>
</g>
<g transform="matrix(1 0 0 1 666.53 80.97)" style="" id="984c9c95-9bce-4488-ba1d-209042d09ea9"  >
		<text xml:space="preserve" font-family="Lato" font-size="40" font-style="normal" font-weight="400" style="stroke: none; stroke-width: 1; stroke-dasharray: none; stroke-linecap: butt; stroke-dashoffset: 0; stroke-linejoin: miter; stroke-miterlimit: 4; fill: rgb(0,0,0); fill-rule: nonzero; opacity: 1; white-space: pre;" ><tspan x="-89.68" y="12.57" style="white-space: pre; "> Complete</tspan></text>
</g>
<g transform="matrix(1 0 0 1 508.98 870.41)"  >
<path style="stroke: rgb(0,0,0); stroke-width: 30; stroke-dasharray: none; stroke-linecap: round; stroke-dashoffset: 0; stroke-linejoin: round; stroke-miterlimit: 10; fill: none; fill-rule: nonzero; opacity: 1;" vector-effect="non-scaling-stroke"  transform=" translate(-508.98, -870.41)" d="M 484.7096768402155 873.3191202872532 Q 484.73967684021545 873.3191202872532 486.6786355475763 873.3191202872532 Q 488.61759425493716 873.3191202872532 490.55655296229804 873.3191202872532 Q 492.4955116696589 873.3191202872532 494.4344703770198 873.3191202872532 Q 496.37342908438063 873.3191202872532 500.2513464991024 873.3191202872532 Q 504.1292639138241 873.3191202872532 505.0987432675045 873.3191202872532 Q 506.06822262118493 873.3191202872532 507.0377019748654 873.3191202872532 Q 508.0071813285458 873.3191202872532 508.9766606822262 872.3496409335728 Q 509.94614003590664 871.3801615798923 510.91561938958705 871.3801615798923 Q 511.8850987432675 871.3801615798923 512.854578096948 871.3801615798923 Q 513.8240574506284 871.3801615798923 515.7630161579893 871.3801615798923 Q 517.7019748653502 871.3801615798923 517.7019748653502 870.4106822262119 Q 517.7019748653502 869.4412028725314 518.6714542190306 869.4412028725314 Q 519.640933572711 869.4412028725314 521.5798922800718 868.471723518851 Q 523.5188509874326 867.5022441651706 525.4578096947935 867.5022441651706 Q 527.3967684021544 867.5022441651706 529.3357271095153 867.5022441651706 Q 531.2746858168762 867.5022441651706 532.2441651705566 867.5022441651706 L 533.243644524237 867.5022441651706" stroke-linecap="round" />
</g>
<g transform="matrix(1 0 0 1 453.7 875.24)"  >
<path style="stroke: rgb(0,0,0); stroke-width: 30; stroke-dasharray: none; stroke-linecap: round; stroke-dashoffset: 0; stroke-linejoin: round; stroke-miterlimit: 10; fill: none; fill-rule: nonzero; opacity: 1;" vector-effect="non-scaling-stroke"  transform=" translate(-453.7, -875.24)" d="M 478.92280071813286 869.4112028725315 Q 478.92280071813286 869.4412028725314 478.92280071813286 870.4106822262119 Q 478.92280071813286 871.3801615798923 478.92280071813286 872.3496409335728 Q 478.92280071813286 873.3191202872532 476.01436265709157 873.3191202872532 Q 473.1059245960503 873.3191202872532 471.16696588868945 873.3191202872532 Q 469.22800718132856 873.3191202872532 467.2890484739677 873.3191202872532 Q 465.35008976660686 873.3191202872532 461.4721723518851 873.3191202872532 Q 457.5942549371634 873.3191202872532 455.6552962298025 875.258078994614 Q 453.7163375224417 877.1970377019749 451.77737881508085 877.1970377019749 Q 449.83842010771997 877.1970377019749 447.8994614003591 877.1970377019749 Q 445.9605026929982 877.1970377019749 444.0215439856373 879.1359964093358 Q 442.0825852782765 881.0749551166966 440.14362657091567 881.0749551166966 Q 438.2046678635548 881.0749551166966 436.2657091561939 881.0749551166966 Q 434.3267504488331 881.0749551166966 432.3877917414722 881.0749551166966 Q 430.4488330341113 881.0749551166966 429.4793536804309 881.0749551166966 L 428.4798743267505 881.0749551166966" stroke-linecap="round" />
</g>
<g transform="matrix(1 0 0 1 675.71 613.5)"  >
<path style="stroke: rgb(0,0,0); stroke-width: 30; stroke-dasharray: none; stroke-linecap: round; stroke-dashoffset: 0; stroke-linejoin: round; stroke-miterlimit: 10; fill: none; fill-rule: nonzero; opacity: 1;" vector-effect="non-scaling-stroke"  transform=" translate(-675.71, -613.5)" d="M 698.0251346499102 685.2701256732496 Q 698.0251346499102 685.2401256732496 698.0251346499102 683.3011669658888 Q 698.0251346499102 681.3622082585279 698.0251346499102 679.4232495511669 Q 698.0251346499102 677.4842908438061 698.0251346499102 672.6368940754039 Q 698.0251346499102 667.7894973070019 698.0251346499102 661.9726211849193 Q 698.0251346499102 656.1557450628367 698.0251346499102 647.4304308797127 Q 698.0251346499102 638.7051166965889 698.0251346499102 632.8882405745063 Q 698.0251346499102 627.0713644524237 698.0251346499102 625.1324057450629 Q 698.0251346499102 623.193447037702 698.0251346499102 621.2544883303411 Q 698.0251346499102 619.3155296229803 698.0251346499102 617.3765709156194 Q 698.0251346499102 615.4376122082585 697.0556552962298 614.4681328545781 Q 696.0861759425494 613.4986535008977 695.116696588869 612.5291741472172 Q 694.1472172351886 611.5596947935368 694.1472172351886 609.620736086176 Q 694.1472172351886 607.6817773788151 693.1777378815082 601.8649012567325 Q 692.2082585278276 596.04802513465 688.330341113106 593.1395870736087 Q 684.4524236983842 590.2311490125674 683.4829443447038 586.3532315978457 Q 682.5134649910234 582.4753141831239 681.543985637343 581.5058348294435 Q 680.5745062836625 580.536355475763 680.5745062836625 579.5668761220826 Q 680.5745062836625 578.5973967684022 678.6355475763016 578.5973967684022 Q 676.6965888689408 578.5973967684022 676.6965888689408 576.6584380610414 Q 676.6965888689408 574.7194793536804 675.7271095152603 573.75 Q 674.7576301615799 572.7805206463196 673.7881508078995 572.7805206463196 Q 672.818671454219 572.7805206463196 671.8491921005386 570.8415619389586 Q 670.8797127468582 568.9026032315978 670.8797127468582 566.963644524237 Q 670.8797127468582 565.0246858168762 668.9407540394973 564.0552064631956 Q 667.0017953321365 563.0857271095152 667.0017953321365 562.1162477558348 Q 667.0017953321365 561.1467684021544 666.032315978456 560.177289048474 Q 665.0628366247756 559.2078096947936 664.0933572710952 556.2993716337523 Q 663.1238779174148 553.390933572711 660.2154398563735 551.4519748653502 Q 657.3070017953322 549.5130161579892 655.3680430879713 545.6350987432675 L 653.3990843806105 541.7271813285458" stroke-linecap="round" />
</g>
</svg>